<?xml version="1.0" encoding="UTF-8"?>
<!DOCTYPE svg PUBLIC "-//W3C//DTD SVG 1.1//EN" "http://www.w3.org/Graphics/SVG/1.1/DTD/svg11.dtd">
<svg version="1.1" xmlns="http://www.w3.org/2000/svg" xmlns:xlink="http://www.w3.org/1999/xlink" x="0" y="0" width="1100.548" height="432.32" viewBox="0, 0, 1100.548, 432.32">
  <g id="レイヤー_1" transform="translate(-68.926, -246.713)">
	<path d="M252.784,246.713 C321.521,246.748 387.576,286.783 417.58,349.052 C409.318,349.694 401.387,352.299 393.745,355.353 Q377.361,362.393 365.201,374.553 Q353.041,386.713 346.001,403.097 Q338.961,419.481 338.961,437.913 Q338.961,456.345 346.001,472.729 Q353.041,489.113 365.201,501.273 Q377.361,513.433 393.745,520.473 C399.009,522.82 404.548,524.405 410.183,525.544 C377.37,580.896 316.531,613.624 252.784,614.43 C151.242,614.43 68.926,532.114 68.926,430.572 C68.926,329.03 151.242,246.713 252.784,246.713 z M227.601,352.409 L180.241,352.409 L180.241,523.161 L227.601,523.161 Q251.665,523.161 270.481,517.657 Q289.297,512.153 302.225,501.401 Q315.153,490.649 321.937,474.649 Q328.721,458.649 328.721,437.657 Q328.721,416.665 321.937,400.665 Q315.153,384.665 302.225,373.913 Q289.297,363.161 270.481,357.785 Q251.665,352.409 227.601,352.409 z M234.769,401.049 Q253.969,401.049 264.465,410.009 Q274.961,418.969 274.961,437.657 Q274.961,456.345 264.465,465.433 Q253.969,474.521 234.769,474.521 L234.769,401.049 z M428.561,348.313 C421.84,348.475 425.504,348.274 417.58,349.052 C425.733,365.975 431.897,383.888 434.463,402.562 C437.209,403.116 439.957,403.691 442.513,404.889 Q449.041,407.705 453.905,412.569 Q458.769,417.433 461.585,423.961 Q464.401,430.489 464.401,437.913 Q464.401,445.337 461.585,451.865 Q458.769,458.393 453.905,463.257 Q449.041,468.121 442.513,470.937 C439.003,472.345 435.35,473.423 431.547,473.597 C426.862,491.808 420.239,509.558 410.183,525.544 C411.797,525.87 413.393,526.303 415.025,526.523 C422.049,527.469 422.741,527.373 428.561,527.513 Q446.993,527.513 463.377,520.473 Q479.761,513.433 491.921,501.273 Q504.081,489.113 511.121,472.729 Q518.161,456.345 518.161,437.913 Q518.161,419.481 511.121,403.097 Q504.081,386.713 491.921,374.553 Q479.761,362.393 463.377,355.353 Q446.993,348.313 428.561,348.313 z M634.897,352.409 L515.601,352.409 L515.601,397.209 L547.089,397.209 L547.089,523.161 L603.409,523.161 L603.409,397.209 L634.897,397.209 L634.897,352.409 z M428.561,402.073 Q421.137,402.073 414.609,404.889 Q408.081,407.705 403.217,412.569 Q398.353,417.433 395.537,423.961 Q392.721,430.489 392.721,437.913 Q392.721,445.337 395.537,451.865 Q398.353,458.393 403.217,463.257 Q408.081,468.121 414.609,470.937 Q421.137,473.753 428.561,473.753 C430.786,473.7 429.792,473.769 431.547,473.597 C435.154,459.576 436.505,445.013 436.642,430.571 C436.523,421.203 436.072,411.809 434.463,402.562 C432.525,402.171 430.533,402.096 428.561,402.073 z" fill="#298AF5"/>
	<g>
	  <path d="M864.194,256.313 Q864.194,257.593 863.714,260.793 Q863.234,263.993 862.754,267.833 Q862.274,271.673 861.794,275.513 Q861.314,279.353 861.314,281.273 Q860.674,281.913 859.714,281.913 Q859.074,281.913 858.434,281.273 Q859.074,278.713 859.234,276.793 Q859.394,274.873 859.394,272.953 Q859.394,266.553 854.114,263.033 Q848.834,259.513 839.234,259.513 Q832.514,259.513 825.314,261.753 Q818.114,263.993 810.594,269.753 Q803.074,275.513 794.914,285.113 Q786.754,294.713 778.114,309.433 Q773.314,317.753 766.274,330.873 Q759.234,343.993 751.234,358.873 Q743.234,373.753 735.234,389.273 Q727.234,404.793 720.514,418.233 Q723.394,418.233 730.114,418.073 Q736.834,417.913 743.874,417.913 Q750.914,417.913 756.674,417.913 Q762.754,417.913 764.674,417.913 Q766.274,418.873 765.634,421.113 Q764.354,421.113 759.234,421.113 Q754.114,421.113 747.074,421.273 Q740.034,421.433 732.514,421.593 Q724.994,421.753 718.914,421.753 Q708.354,442.233 696.674,462.873 Q684.994,483.513 673.314,502.713 Q661.634,521.913 650.274,538.393 Q638.914,554.873 629.314,567.353 Q605.314,598.073 583.714,619.353 Q562.114,640.633 542.594,653.913 Q523.074,667.193 505.954,673.113 Q488.834,679.033 473.474,679.033 Q468.994,679.033 463.714,678.073 Q458.434,677.113 453.474,674.233 Q448.514,671.353 444.674,666.073 Q440.834,660.793 438.914,652.153 Q438.914,649.593 439.554,649.913 Q440.194,650.233 440.834,651.833 Q441.154,654.073 443.394,657.753 Q445.634,661.433 449.954,664.953 Q454.274,668.473 460.674,670.873 Q467.074,673.273 476.034,673.273 Q490.434,672.953 507.234,667.993 Q524.034,663.033 542.594,650.553 Q561.154,638.073 581.474,617.113 Q601.794,596.153 623.554,564.153 Q635.074,547.193 646.434,527.833 Q657.794,508.473 668.514,489.433 Q679.234,470.393 688.674,452.793 Q698.114,435.193 705.794,422.073 Q692.034,423.033 684.034,423.993 Q676.034,424.953 671.234,427.033 Q666.434,429.113 663.714,433.113 Q660.994,437.113 657.474,444.153 L656.514,443.833 Q660.994,433.273 665.474,427.993 Q669.954,422.713 673.794,421.433 Q676.354,420.793 680.674,420.153 Q684.994,419.513 689.954,419.193 Q694.914,418.873 699.714,418.553 Q704.514,418.233 708.034,418.233 Q724.034,388.793 738.914,363.673 Q753.794,338.553 769.794,314.553 Q778.434,301.433 788.354,289.113 Q798.274,276.793 808.514,267.353 Q818.754,257.913 828.834,252.313 Q838.914,246.713 848.194,246.713 Q854.594,246.713 859.394,249.593 Q864.194,252.473 864.194,256.313 z" fill="#2A8AF5"/>
	  <path d="M814.274,448.633 Q808.834,455.353 801.314,462.553 Q793.794,469.753 784.994,475.673 Q776.194,481.593 766.754,485.273 Q757.314,488.953 748.034,488.953 Q732.994,488.953 732.994,475.513 Q732.994,466.553 737.634,456.153 Q742.274,445.753 749.634,436.953 Q756.994,428.153 765.794,422.233 Q774.594,416.313 782.594,416.313 Q787.074,416.313 788.834,417.913 Q790.594,419.513 790.594,422.073 Q790.594,425.913 788.194,430.393 Q785.794,434.873 780.994,438.873 Q776.194,442.873 768.834,445.593 Q761.474,448.313 751.234,448.313 Q749.634,451.193 747.714,457.433 Q745.794,463.673 745.794,470.073 Q745.794,483.193 757.634,483.193 Q764.994,483.193 772.834,479.673 Q780.674,476.153 788.034,470.873 Q795.394,465.593 801.634,459.353 Q807.874,453.113 812.034,447.673 Q812.674,447.033 813.474,447.353 Q814.274,447.673 814.274,448.633 z M780.674,423.673 Q780.674,419.513 776.514,419.513 Q773.314,419.513 769.954,421.913 Q766.594,424.313 763.394,428.153 Q760.194,431.993 757.314,436.473 Q754.434,440.953 752.514,445.113 Q753.154,445.433 754.754,445.593 Q756.354,445.753 757.314,445.753 Q766.594,445.753 773.634,439.193 Q780.674,432.633 780.674,423.673 z" fill="#2A8AF5"/>
	  <path d="M909.314,442.873 Q901.954,451.833 893.154,460.953 Q884.354,470.073 875.394,477.433 Q866.434,484.793 857.634,489.273 Q848.834,493.753 841.474,493.753 Q835.074,493.753 832.514,490.553 Q829.954,487.353 829.954,482.553 Q829.954,478.073 832.674,470.553 Q835.394,463.033 840.834,454.393 Q836.674,459.833 831.234,465.913 Q825.794,471.993 820.034,476.953 Q814.274,481.913 808.514,485.273 Q802.754,488.633 798.274,488.633 Q791.554,488.633 791.554,481.913 Q791.554,474.553 797.314,463.353 Q803.074,452.153 812.834,441.753 Q822.594,431.353 835.074,423.833 Q847.554,416.313 860.994,416.313 Q862.594,413.113 863.874,411.833 Q865.154,410.553 866.434,409.913 L875.394,407.353 L876.034,407.673 Q874.434,409.273 872.994,411.673 Q871.554,414.073 869.954,416.633 Q871.554,416.633 874.754,416.953 Q877.954,417.273 879.554,417.593 Q881.154,418.233 881.154,419.193 Q881.154,420.153 880.194,420.153 Q878.274,419.513 874.434,419.193 Q870.594,418.873 868.674,418.873 Q853.954,444.793 847.074,459.993 Q840.194,475.193 840.194,482.553 Q840.194,485.433 841.634,487.353 Q843.074,489.273 847.554,489.273 Q852.674,489.273 859.714,485.593 Q866.754,481.913 874.754,475.353 Q882.754,468.793 891.234,460.153 Q899.714,451.513 907.394,441.913 Q908.034,440.953 908.674,441.433 Q909.314,441.913 909.314,442.873 z M859.394,418.553 Q848.514,418.553 838.594,426.233 Q828.674,433.913 820.994,444.313 Q813.314,454.713 808.674,464.953 Q804.034,475.193 804.034,479.993 Q804.034,482.553 805.954,482.553 Q807.874,482.553 811.874,479.993 Q815.874,477.433 820.994,473.113 Q826.114,468.793 831.394,463.033 Q836.674,457.273 841.154,450.553 Q846.274,442.873 851.074,434.233 Q855.874,425.593 859.714,418.873 z" fill="#2A8AF5"/>
	  <path d="M1108.994,283.513 Q1108.994,293.433 1101.794,306.393 Q1094.594,319.353 1080.674,333.753 Q1066.754,348.153 1046.594,363.353 Q1026.434,378.553 1000.834,392.953 Q991.874,409.273 984.994,422.553 Q978.114,435.833 971.714,450.553 Q971.074,452.153 971.394,452.313 Q971.714,452.473 972.674,451.513 Q980.674,441.913 991.554,431.833 Q1002.434,421.753 1013.634,416.633 Q1015.554,415.993 1016.514,415.993 Q1019.074,415.993 1020.514,418.233 Q1021.954,420.473 1021.954,421.753 Q1021.954,423.033 1020.354,427.513 Q1018.754,431.993 1016.194,437.753 Q1013.634,443.513 1010.594,450.073 Q1007.554,456.633 1004.674,462.393 Q1001.794,467.833 997.954,475.033 Q994.114,482.233 989.954,489.433 Q985.794,496.633 981.794,503.193 Q977.794,509.753 974.274,514.553 Q960.514,533.753 946.274,545.433 Q932.034,557.113 916.034,562.553 Q901.314,567.673 887.874,567.673 Q878.914,567.673 870.434,565.593 Q861.954,563.513 854.914,559.033 Q852.674,557.433 852.194,555.673 Q851.714,553.913 851.394,551.353 Q851.394,550.073 851.074,547.673 Q850.754,545.273 850.434,542.873 Q850.114,540.473 849.794,538.233 Q849.474,535.993 849.474,535.033 Q849.474,532.153 852.034,532.793 Q852.034,536.313 853.794,541.433 Q855.554,546.553 860.194,551.673 Q864.834,556.793 872.674,560.313 Q880.514,563.833 892.354,563.833 Q902.274,563.833 915.074,559.993 Q930.754,555.513 943.234,543.033 Q955.714,530.553 967.234,513.273 Q972.994,504.633 978.754,493.913 Q984.514,483.193 989.314,472.953 Q994.114,462.713 997.474,454.553 Q1000.834,446.393 1001.794,443.193 Q1004.034,436.793 1004.674,433.433 Q1005.314,430.073 1005.314,428.473 Q1005.314,426.233 1003.714,426.233 Q1002.434,426.233 996.194,431.193 Q989.954,436.153 983.074,443.353 Q976.194,450.553 970.754,459.033 Q965.314,467.513 965.314,474.873 Q965.314,477.433 965.634,479.353 Q965.954,481.273 965.954,481.913 Q965.954,483.513 961.314,484.793 Q956.674,486.073 952.194,488.633 Q950.914,488.633 950.914,486.073 Q950.914,482.233 950.914,479.993 Q950.914,477.433 951.714,474.073 Q952.514,470.713 954.594,465.913 Q956.674,461.113 961.154,452.633 Q965.634,444.153 972.674,430.873 Q979.714,417.593 990.274,398.073 Q977.154,404.793 961.794,410.553 Q946.434,416.313 929.154,420.153 Q926.274,424.953 922.114,432.153 Q917.954,439.353 914.274,447.193 Q910.594,455.033 908.034,462.713 Q905.474,470.393 905.474,476.153 Q905.474,481.593 906.754,484.153 Q908.034,486.713 912.194,486.713 Q916.674,486.713 921.314,484.793 Q925.954,482.873 933.314,478.713 Q934.274,478.073 934.914,478.873 Q935.554,479.673 934.914,480.633 Q913.794,493.433 900.994,493.433 Q897.154,493.433 894.274,491.513 Q891.394,489.593 891.394,480.953 Q891.394,477.113 894.114,470.233 Q896.834,463.353 900.834,455.033 Q904.834,446.713 909.314,437.913 Q913.794,429.113 917.314,421.433 Q910.594,423.033 900.674,423.833 Q890.754,424.633 882.754,424.953 Q881.474,424.953 881.474,423.993 Q881.474,422.073 885.314,422.073 Q888.834,422.073 893.954,421.913 Q899.074,421.753 904.034,421.273 Q908.994,420.793 913.314,420.153 Q917.634,419.513 918.914,418.873 Q921.794,414.393 925.314,408.953 Q928.834,403.513 932.354,398.233 Q935.874,392.953 938.914,388.793 Q941.954,384.633 943.554,383.353 Q946.114,381.753 951.074,380.313 Q956.034,378.873 960.194,377.593 Q961.794,377.593 961.474,378.553 Q961.154,379.513 960.194,380.153 Q957.954,380.793 955.234,382.553 Q952.514,384.313 950.914,386.553 Q947.074,391.353 942.114,398.873 Q937.154,406.393 930.754,417.273 Q944.194,414.713 960.034,408.953 Q975.874,403.193 991.554,394.873 Q996.034,386.873 1001.474,376.633 Q1006.914,366.393 1012.834,355.833 Q1018.754,345.273 1024.354,335.353 Q1029.954,325.433 1034.754,318.393 Q1041.474,308.153 1049.154,299.193 Q1056.834,290.233 1064.994,283.673 Q1073.154,277.113 1081.314,273.273 Q1089.474,269.433 1097.154,269.433 Q1101.314,269.433 1105.154,271.513 Q1108.994,273.593 1108.994,283.193 z M1100.354,286.713 Q1100.354,282.553 1099.074,280.313 Q1097.794,278.073 1095.714,276.953 Q1093.634,275.833 1091.234,275.513 Q1088.834,275.193 1086.594,275.193 Q1083.714,275.193 1079.554,276.793 Q1075.394,278.393 1069.634,283.353 Q1063.874,288.313 1056.034,297.593 Q1048.194,306.873 1038.274,322.233 Q1035.394,327.033 1031.234,334.713 Q1027.074,342.393 1022.274,351.513 Q1017.474,360.633 1012.354,370.553 Q1007.234,380.473 1002.434,389.753 Q1016.834,382.073 1033.794,370.393 Q1050.754,358.713 1065.634,344.953 Q1080.514,331.193 1090.434,316.153 Q1100.354,301.113 1100.354,286.713 z" fill="#2A8AF5"/>
	  <path d="M1113.474,448.633 Q1108.034,455.353 1100.514,462.553 Q1092.994,469.753 1084.194,475.673 Q1075.394,481.593 1065.954,485.273 Q1056.514,488.953 1047.234,488.953 Q1032.194,488.953 1032.194,475.513 Q1032.194,466.553 1036.834,456.153 Q1041.474,445.753 1048.834,436.953 Q1056.194,428.153 1064.994,422.233 Q1073.794,416.313 1081.794,416.313 Q1086.274,416.313 1088.034,417.913 Q1089.794,419.513 1089.794,422.073 Q1089.794,425.913 1087.394,430.393 Q1084.994,434.873 1080.194,438.873 Q1075.394,442.873 1068.034,445.593 Q1060.674,448.313 1050.434,448.313 Q1048.834,451.193 1046.914,457.433 Q1044.994,463.673 1044.994,470.073 Q1044.994,483.193 1056.834,483.193 Q1064.194,483.193 1072.034,479.673 Q1079.874,476.153 1087.234,470.873 Q1094.594,465.593 1100.834,459.353 Q1107.074,453.113 1111.234,447.673 Q1111.874,447.033 1112.674,447.353 Q1113.474,447.673 1113.474,448.633 z M1079.874,423.673 Q1079.874,419.513 1075.714,419.513 Q1072.514,419.513 1069.154,421.913 Q1065.794,424.313 1062.594,428.153 Q1059.394,431.993 1056.514,436.473 Q1053.634,440.953 1051.714,445.113 Q1052.354,445.433 1053.954,445.593 Q1055.554,445.753 1056.514,445.753 Q1065.794,445.753 1072.834,439.193 Q1079.874,432.633 1079.874,423.673 z" fill="#2A8AF5"/>
	  <path d="M1169.474,421.433 Q1167.554,423.673 1165.474,426.873 Q1163.394,430.073 1162.754,431.673 Q1162.434,432.633 1161.474,432.633 Q1161.154,432.633 1160.514,431.673 Q1159.874,430.713 1158.754,429.593 Q1157.634,428.473 1155.714,427.513 Q1153.794,426.553 1150.274,426.553 Q1146.114,426.553 1140.994,429.433 Q1135.874,432.313 1132.034,435.833 Q1125.954,440.953 1121.314,447.033 Q1116.674,453.113 1112.514,459.673 Q1108.354,466.233 1104.514,473.113 Q1100.674,479.993 1096.194,487.033 Q1095.874,487.993 1094.274,487.993 Q1093.634,487.993 1091.554,486.073 Q1089.474,484.153 1089.474,483.193 Q1089.474,481.273 1091.714,477.433 Q1096.834,468.473 1102.114,459.353 Q1107.394,450.233 1112.034,442.233 Q1116.674,434.233 1120.194,428.313 Q1123.714,422.393 1124.994,419.513 Q1126.594,416.633 1127.234,416.633 Q1127.874,416.633 1130.434,418.233 Q1132.994,419.833 1132.994,422.713 Q1132.994,423.673 1131.874,425.913 Q1130.754,428.153 1129.314,430.553 Q1127.874,432.953 1126.594,435.193 Q1125.314,437.433 1124.674,438.393 Q1123.714,439.993 1124.354,439.993 Q1124.994,439.993 1125.954,439.033 Q1129.154,435.833 1133.794,431.993 Q1138.434,428.153 1143.554,424.793 Q1148.674,421.433 1153.634,419.193 Q1158.594,416.953 1162.434,416.953 Q1165.314,416.953 1167.394,418.393 Q1169.474,419.833 1169.474,421.433 z" fill="#2A8AF5"/>
	</g>
  </g>
</svg>
