<svg xmlns="http://www.w3.org/2000/svg" width="600" height="70"><g fill="#008AFD"><path d="M390 0v20h30v10h-30v30h30v10h-40V30h-10V20h10V0h10zM120 20v50H70V20h50zm-10 10H80v30h30V30zm-10 10v10H90V40h10zM240 0v10h-40v20h30v10h-30v30h-10V0h50zM150 0v20h30v10h-30v30h30v10h-40V30h-10V20h10V0h10zM440 0v30h40v40h-10V40h-30v30h-10V0h10zM600 20v10h-30v10h-10v30h-10V20h50zM300 20v30h-40v10h40v10h-50V20h50zm-10 10h-30v10h30V30zM310 70V40h40V30h-40V20h50v50h-50zm10-10h30V50h-30v10zM540 20v30h-40v10h40v10h-50V20h50zm-10 10h-30v10h30V30zM60 0v70H0V0h60zM40 10H10v50h30V50h10V20H40V10z"/></g></svg>
